<svg width="70" height="40" viewBox="0 0 70 40" fill="none" xmlns="http://www.w3.org/2000/svg">
<path d="M0 37.4484V36.6254H1.39934V39.9175H0.466446V37.4484H0Z" fill="white"/>
<path d="M2.64319 38.1893C2.64319 37.6955 2.72093 37.284 2.95415 36.9547C3.18737 36.6255 3.49833 36.5432 3.88704 36.5432C4.35348 36.5432 4.66444 36.7078 4.81992 36.9547C5.05314 37.284 5.13088 37.6955 5.13088 38.1893C5.13088 38.6831 5.05314 39.0947 4.81992 39.4239C4.5867 39.7531 4.27574 39.8354 3.88704 39.8354C3.42059 39.8354 3.10963 39.6708 2.95415 39.4239C2.79867 39.177 2.64319 38.7654 2.64319 38.1893ZM4.35348 38.1893C4.35348 37.9424 4.35348 37.7778 4.27574 37.6132C4.198 37.4486 4.12026 37.3663 3.96478 37.3663C3.8093 37.3663 3.65381 37.4486 3.65381 37.6132C3.57607 37.7778 3.57607 37.9424 3.57607 38.1893C3.57607 38.4362 3.57607 38.6831 3.65381 38.7654C3.73156 38.93 3.8093 39.0124 3.96478 39.0124C4.12026 39.0124 4.27574 38.93 4.27574 38.7654C4.35348 38.6831 4.35348 38.5185 4.35348 38.1893Z" fill="white"/>
<path d="M14.693 36.6254L13.9156 39.9175H12.9827L12.5162 37.6953L12.0498 39.9175H11.1169L10.3395 36.6254H11.1946L11.5833 39.0122L12.1275 36.6254H12.9827L13.5269 39.0122L13.9156 36.6254H14.693Z" fill="white"/>
<path d="M20.4458 36.7901C20.679 36.9547 20.9123 37.1193 20.99 37.3663C21.1455 37.6132 21.2232 37.9424 21.2232 38.2716C21.2232 38.6008 21.1455 38.8477 20.99 39.177C20.8345 39.4239 20.679 39.6708 20.4458 39.7531C20.2126 39.9177 19.9794 40 19.6684 40C19.3574 40 19.1242 39.9177 18.891 39.7531C18.6578 39.5885 18.4246 39.4239 18.3468 39.177C18.1913 38.93 18.1136 38.6008 18.1136 38.2716C18.1136 37.9424 18.1913 37.6955 18.3468 37.3663C18.5023 37.1193 18.6578 36.8724 18.891 36.7901C19.1242 36.6255 19.3574 36.5432 19.6684 36.5432C19.9794 36.5432 20.2126 36.6255 20.4458 36.7901ZM19.0465 37.5309C18.891 37.6955 18.8133 37.9424 18.8133 38.1893C18.8133 38.5185 18.891 38.6831 19.0465 38.8477C19.202 39.0124 19.3574 39.0947 19.6684 39.0947C19.9016 39.0947 20.1348 39.0124 20.2903 38.8477C20.4458 38.6831 20.5235 38.4362 20.5235 38.1893C20.5235 37.9424 20.4458 37.6955 20.2903 37.5309C20.1348 37.3663 19.9794 37.284 19.6684 37.284C19.3574 37.284 19.202 37.3663 19.0465 37.5309Z" fill="white"/>
<path d="M26.3541 39.9175L25.6544 38.683H25.499V39.9175H24.7216V36.6254H26.0432C26.2764 36.6254 26.5096 36.7077 26.6651 36.79C26.8206 36.8723 26.976 37.0369 27.0538 37.2015C27.1315 37.3661 27.2093 37.5307 27.2093 37.7776C27.2093 38.0245 27.1315 38.1892 27.0538 38.3538C26.8983 38.5184 26.7428 38.6007 26.5096 38.683L27.287 39.9998H26.3541V39.9175ZM25.499 38.1068H25.9654C26.1209 38.1068 26.1986 38.1068 26.2764 38.0245C26.3541 37.9422 26.3541 37.8599 26.3541 37.6953C26.3541 37.5307 26.3541 37.4484 26.2764 37.3661C26.1986 37.2838 26.1209 37.2838 25.9654 37.2838H25.499V38.1068Z" fill="white"/>
<path d="M31.3295 39.2593H32.3402V39.8354H30.5521V36.5432H31.3295V39.2593Z" fill="white"/>
<path d="M38.404 39.0945C38.2485 39.3414 38.093 39.506 37.8598 39.6706C37.6265 39.8352 37.3156 39.9175 37.0046 39.9175H35.8385V36.6254H37.0046C37.3156 36.6254 37.6265 36.7077 37.8598 36.79C38.093 36.9546 38.3262 37.1192 38.404 37.3661C38.5594 37.613 38.6372 37.8599 38.6372 38.1892C38.6372 38.5184 38.5594 38.8476 38.404 39.0945ZM37.6265 38.9299C37.782 38.7653 37.8598 38.5184 37.8598 38.2715C37.8598 37.9422 37.782 37.7776 37.6265 37.613C37.4711 37.4484 37.2378 37.3661 36.9269 37.3661H36.5382V39.2591H36.9269C37.2378 39.1768 37.3933 39.0945 37.6265 38.9299Z" fill="white"/>
<path d="M46.1003 36.6254V37.0369H45.2452V39.9175H44.701V37.0369H43.8458V36.6254H46.1003Z" fill="white"/>
<path d="M51.1533 39.9175L50.3759 38.6007H49.9872V39.9175H49.5208V36.6254H50.6091C50.9978 36.6254 51.231 36.7077 51.3865 36.8723C51.542 37.0369 51.6975 37.2838 51.6975 37.613C51.6975 37.8599 51.6197 38.1068 51.4643 38.2715C51.3088 38.4361 51.1533 38.5184 50.8423 38.6007L51.6197 39.9175H51.1533ZM50.0649 38.1892H50.6091C50.9978 38.1892 51.231 38.0245 51.231 37.613C51.231 37.4484 51.1533 37.2838 51.0756 37.2015C50.9978 37.1192 50.8423 37.0369 50.6091 37.0369H50.0649V38.1892Z" fill="white"/>
<path d="M57.1395 39.1768H55.8179L55.5847 39.9175H55.0405L56.2066 36.7076H56.7508L57.9169 39.9175H57.3727L57.1395 39.1768ZM56.984 38.7653L56.4399 37.2015L55.9734 38.7653H56.984Z" fill="white"/>
<path d="M63.8251 39.0947C63.6696 39.3416 63.5141 39.5062 63.2809 39.6708C63.0477 39.8354 62.7367 39.8354 62.4258 39.8354H61.4151V36.5432H62.4258C62.7367 36.5432 63.0477 36.6255 63.2809 36.7078C63.5141 36.8724 63.7474 37.037 63.8251 37.284C63.9806 37.5309 63.9806 37.7778 63.9806 38.1893C63.9806 38.6008 63.9806 38.8477 63.8251 39.0947ZM63.2032 39.0947C63.4364 38.93 63.5141 38.6008 63.5141 38.2716C63.5141 37.9424 63.4364 37.6132 63.2032 37.4486C62.9699 37.284 62.7367 37.1193 62.348 37.1193H61.8816V39.4239H62.348C62.7367 39.4239 62.9699 39.3416 63.2032 39.0947Z" fill="white"/>
<path d="M68.1008 37.0369V38.0245H69.2669V38.4361H68.1008V39.506H69.3446V39.9175H67.6343V36.6254H69.4224V37.0369H68.1008Z" fill="white"/>
<path d="M65.3799 0C61.1042 5.59671 56.1288 17.2839 53.3301 25.4321C50.7647 16.7078 43.457 10.4527 34.7501 10.4527C26.0431 10.4527 18.6578 16.7078 16.0923 25.4321C13.2159 17.2839 8.24051 5.59671 3.96478 0H0C5.36411 6.09053 12.594 22.3868 14.7707 32.0988H17.8026C17.8026 32.0165 17.8026 31.6049 17.8026 31.5226C18.1913 21.3992 25.5767 13.3333 34.6723 13.3333C43.9235 13.3333 51.4643 21.7284 51.5421 32.0988H54.574C56.7507 22.3868 64.0583 6.09053 69.3447 0H65.3799Z" fill="white"/>
</svg>
